Coordinates
version=1
nRows=11
nColumns=36
inDegrees=yes

Units are S.I. units (second, meters, Newtons, ...)
If the header above contains a line with 'inDegrees', this indicates whether rotational values are in degrees (yes) or radians (no).

endheader
time	pelvis_tilt	pelvis_list	pelvis_rotation	pelvis_tx	pelvis_ty	pelvis_tz	hip_flexion_r	hip_adduction_r	hip_rotation_r	knee_angle_r	knee_angle_r_beta	ankle_angle_r	subtalar_angle_r	mtp_angle_r	hip_flexion_l	hip_adduction_l	hip_rotation_l	knee_angle_l	knee_angle_l_beta	ankle_angle_l	subtalar_angle_l	mtp_angle_l	lumbar_extension	lumbar_bending	lumbar_rotation	arm_flex_r	arm_add_r	arm_rot_r	elbow_flex_r	pro_sup_r	arm_flex_l	arm_add_l	arm_rot_l	elbow_flex_l	pro_sup_l
      0.78000000	     -5.15232809	      7.79191367	     -0.53448972	      0.77022351	      0.91564636	     -0.25016160	    -10.89175266	     -3.99753283	      0.83342608	     32.47587618	      0.56681097	    -10.04515837	    -16.26148878	     -7.30471649	     19.08865934	      8.51565666	      2.39924707	      5.47775000	      0.09560477	     -3.24598099	      4.35133408	     -7.30471649	    -10.51462046	    -18.81339436	      1.95220641	     -3.93627222	     -3.92909993	      7.43751245	     40.81973250	    100.58406369	    -13.44768353	     -9.87402416	    -33.69338710	     42.14156256	    101.59898414
      0.79000000	     -5.33065164	      7.81059554	     -0.97297325	      0.78027743	      0.91718629	     -0.24952105	     -8.90809893	     -4.09762655	      1.34793940	     36.05693373	      0.62931221	    -11.88250306	    -17.43525913	     -7.31332326	     18.29912387	      8.45115343	      2.48802188	      4.97757868	      0.08687514	     -2.87292675	      4.06607079	     -7.31332326	    -10.23988986	    -19.25793281	      2.17975073	     -4.24533630	     -4.38530495	      9.38505394	     40.90830893	    100.25980180	    -12.87069143	     -9.95827560	    -33.92095995	     41.78354983	    101.78219447
      0.80000000	     -5.32698768	      7.89561483	     -1.46453761	      0.79028163	      0.91876341	     -0.24889250	     -7.08171082	     -4.32790019	      1.69636978	     39.59417924	      0.69104879	    -12.86818953	    -17.93795950	     -7.31565063	     17.26196606	      8.45006745	      2.57601863	      4.36407313	      0.07616744	     -2.29057665	      4.05843694	     -7.31565063	    -10.16286991	    -19.72493782	      2.46803774	     -4.65824016	     -4.67080648	     10.30876492	     41.11085139	    100.21283124	    -12.26806559	    -10.02299617	    -34.03905318	     41.65133902	    101.81246897
      0.81000000	     -5.38111703	      7.89083576	     -1.93049053	      0.80001843	      0.92011920	     -0.24828125	     -5.14870069	     -4.42544673	      2.02955112	     43.04404808	      0.75126036	    -13.53658229	    -18.83747167	     -7.31835363	     16.38033754	      8.35647816	      2.65302962	      3.90415903	      0.06814043	     -1.88362078	      3.89768760	     -7.31835363	    -10.01378838	    -20.04667355	      2.71271853	     -5.06413776	     -5.07274265	     11.50074525	     41.35042399	    100.15030246	    -11.62221646	    -10.08404259	    -34.12233225	     41.36059420	    101.83383773
      0.82000000	     -5.40814920	      7.80378374	     -2.34000098	      0.80948962	      0.92140640	     -0.24777356	     -3.26034320	     -4.40617620	      2.30666181	     46.26675979	      0.80750729	    -14.21547371	    -20.17493672	     -7.32732566	     15.51823811	      8.21509381	      2.92334367	      3.51389267	      0.06132900	     -1.74097763	      3.24794397	     -7.32732566	     -9.94514958	    -20.21939718	      2.60627354	     -5.18436059	     -5.60562541	     13.46614880	     41.23085907	     99.61931741	    -11.08174523	    -10.15447833	    -34.09764246	     40.90178174	    101.93398891
      0.83000000	     -5.22400036	      7.78268933	     -2.71778478	      0.81896683	      0.92279979	     -0.24732424	     -1.61359208	     -4.51188859	      2.39543224	     49.31295785	      0.86067348	    -13.92756528	    -20.94661811	     -7.32932693	     14.37606207	      8.15523912	      3.10551510	      3.01416369	      0.05260708	     -1.23187790	      3.28344059	     -7.32932693	    -10.15083946	    -20.44113281	      2.53093568	     -5.51028090	     -5.79175287	     13.85145146	     41.16761749	     99.48211037	    -10.49720815	    -10.18754987	    -34.13172146	     40.87214077	    101.93291819
      0.84000000	     -5.12997866	      7.69775029	     -3.00735307	      0.82821068	      0.92398295	     -0.24702031	      0.14341643	     -4.54158466	      2.40251900	     52.16260436	      0.91040919	    -13.35521138	    -21.75257596	     -7.33155795	     13.40884235	      8.05687318	      3.24881611	      2.62944046	      0.04589239	     -0.86661831	      3.20034448	     -7.33155795	    -10.28151268	    -20.53294565	      2.37899980	     -5.86134941	     -5.98335349	     14.22120538	     41.02525571	     99.29384748	     -9.86519657	    -10.21888535	    -34.12273184	     40.74583804	    101.90217367
      0.85000000	     -4.93633701	      7.57513595	     -3.25108798	      0.83728450	      0.92526659	     -0.24676105	      1.77463935	     -4.50438133	      2.44389721	     54.73010014	      0.95522045	    -12.75139345	    -22.43497429	     -7.33304334	     12.37460312	      7.94434055	      3.41563629	      2.32037320	      0.04049815	     -0.53710713	      3.16705501	     -7.33304334	    -10.59682741	    -20.55849120	      2.04930512	     -6.14887181	     -6.08008238	     14.36122394	     40.75364061	     99.12536619	     -9.25194045	    -10.26432821	    -34.07392916	     40.64390494	    101.86292422
      0.86000000	     -4.93136954	      7.48932899	     -3.39640419	      0.84626047	      0.92621014	     -0.24669613	      3.62615397	     -4.53370516	      2.35301171	     57.10978186	      0.99675373	    -11.84010367	    -23.05081350	     -7.33530945	     11.55836324	      7.89702081	      3.51424593	      1.98340608	      0.03461697	     -0.21865644	      3.01245602	     -7.33530945	    -10.65658714	    -20.56348579	      1.73122347	     -6.53229871	     -6.12058482	     14.38309678	     40.32557025	     98.81564233	     -8.58407422	    -10.31746746	    -33.98661534	     40.48103647	    101.77489159
      0.87000000	     -4.77826555	      7.32981681	     -3.52885816	      0.85500440	      0.92733230	     -0.24661327	      5.29558971	     -4.42576589	      2.39462812	     59.17056391	      1.03272116	    -11.14366339	    -23.42162352	     -7.33710192	     10.65554290	      7.78685813	      3.55954861	      1.78008813	      0.03106840	      0.08650884	      2.97188750	     -7.33710192	    -10.92980541	    -20.46612765	      1.24191829	     -6.80554986	     -6.10481369	     14.22976398	     39.92092220	     98.51663043	     -7.93755671	    -10.39487281	    -33.88020155	     40.39618897	    101.64753624
      0.88000000	     -4.80059659	      7.24471599	     -3.62592778	      0.86370449	      0.92818305	     -0.24663178	      7.16759549	     -4.39510440	      2.43345077	     60.99971574	      1.06464588	    -10.19193431	    -23.71005716	     -7.33950957	      9.96386875	      7.76602680	      3.59670590	      1.58164694	      0.02760495	      0.45431958	      2.87492351	     -7.33950957	    -11.02452512	    -20.42723907	      0.81213589	     -7.19233265	     -6.00470237	     13.84868351	     39.34904380	     98.07262041	     -7.27245190	    -10.46281127	    -33.71447352	     40.19833641	    101.47303745
